<mxfile host="65bd71144e">
    <diagram id="J3iEwCzXWGGpaU5SErAB" name="Page-1">
        <mxGraphModel dx="1667" dy="706" grid="1" gridSize="10" guides="1" tooltips="1" connect="1" arrows="1" fold="1" page="1" pageScale="1" pageWidth="850" pageHeight="1100" math="0" shadow="0">
            <root>
                <mxCell id="0"/>
                <mxCell id="1" parent="0"/>
                <mxCell id="13" value="Build Options" style="swimlane;whiteSpace=wrap;html=1;" parent="1" vertex="1">
                    <mxGeometry x="30" y="170" width="510" height="290" as="geometry">
                        <mxRectangle x="330" y="40" width="100" height="30" as="alternateBounds"/>
                    </mxGeometry>
                </mxCell>
                <mxCell id="14" value="Release Options" style="swimlane;whiteSpace=wrap;html=1;" parent="1" vertex="1">
                    <mxGeometry x="20" y="120" width="670" height="350" as="geometry">
                        <mxRectangle x="330" y="40" width="100" height="30" as="alternateBounds"/>
                    </mxGeometry>
                </mxCell>
                <mxCell id="12" value="Init Options" style="swimlane;whiteSpace=wrap;html=1;" parent="14" vertex="1">
                    <mxGeometry x="30" y="100" width="190" height="290" as="geometry">
                        <mxRectangle x="330" y="40" width="100" height="30" as="alternateBounds"/>
                    </mxGeometry>
                </mxCell>
                <mxCell id="16" value="Env Options" style="swimlane;whiteSpace=wrap;html=1;" parent="14" vertex="1">
                    <mxGeometry x="40" y="150" width="630" height="150" as="geometry">
                        <mxRectangle x="330" y="40" width="100" height="30" as="alternateBounds"/>
                    </mxGeometry>
                </mxCell>
                <mxCell id="21" value="Cli Options" style="swimlane;whiteSpace=wrap;html=1;" vertex="1" parent="16">
                    <mxGeometry x="15" y="35" width="600" height="80" as="geometry">
                        <mxRectangle x="330" y="40" width="100" height="30" as="alternateBounds"/>
                    </mxGeometry>
                </mxCell>
                <mxCell id="18" value="New Options" style="swimlane;whiteSpace=wrap;html=1;" parent="1" vertex="1">
                    <mxGeometry x="20" y="560" width="180" height="70" as="geometry">
                        <mxRectangle x="330" y="40" width="100" height="30" as="alternateBounds"/>
                    </mxGeometry>
                </mxCell>
                <mxCell id="19" value="Clear Options" style="swimlane;whiteSpace=wrap;html=1;" parent="1" vertex="1">
                    <mxGeometry x="300" y="530" width="180" height="70" as="geometry">
                        <mxRectangle x="330" y="40" width="100" height="30" as="alternateBounds"/>
                    </mxGeometry>
                </mxCell>
            </root>
        </mxGraphModel>
    </diagram>
</mxfile>
